<?xml version="1.0" standalone="no"?>
<!DOCTYPE svg PUBLIC "-//W3C//DTD SVG 20010904//EN"
 "http://www.w3.org/TR/2001/REC-SVG-20010904/DTD/svg10.dtd">
<svg version="1.0" xmlns="http://www.w3.org/2000/svg"
 width="1600.000000pt" height="1600.000000pt" viewBox="0 0 1600.000000 1600.000000"
 preserveAspectRatio="xMidYMid meet">

<g transform="translate(0.000000,1600.000000) scale(0.100000,-0.100000)"
fill="#000000" stroke="none">
<path d="M3306 12594 c-116 -42 -227 -144 -270 -248 l-16 -39 31 7 c99 19 225
136 298 274 13 25 10 26 -43 6z"/>
<path d="M5586 12559 c36 -66 144 -182 198 -214 53 -30 106 -42 106 -23 0 23
-56 112 -96 152 -65 64 -134 107 -213 131 l-23 7 28 -53z"/>
<path d="M2965 12503 c-123 -63 -230 -179 -276 -300 l-9 -25 57 7 c76 9 84 14
148 92 65 80 160 254 137 253 -4 -1 -29 -13 -57 -27z"/>
<path d="M5911 12478 c30 -77 84 -162 143 -225 47 -50 56 -56 117 -67 l67 -12
-14 40 c-36 101 -149 224 -261 284 -33 17 -63 32 -67 32 -3 0 4 -24 15 -52z"/>
<path d="M12540 12461 c-57 -4 -100 -14 -131 -29 -56 -27 -174 -126 -214 -178
-16 -21 -63 -76 -105 -120 -117 -127 -157 -172 -243 -274 -93 -111 -94 -112
-187 -149 -39 -16 -86 -41 -104 -55 -34 -26 -126 -70 -264 -128 -40 -17 -105
-51 -145 -77 -40 -25 -95 -57 -121 -70 -27 -14 -80 -55 -120 -91 -39 -37 -80
-70 -91 -74 -34 -12 -218 -118 -255 -147 -19 -15 -60 -32 -92 -38 -31 -7 -97
-32 -145 -55 -83 -41 -188 -84 -295 -121 -70 -24 -149 -106 -197 -203 -21 -45
-48 -94 -59 -109 -65 -93 -80 -145 -94 -323 -18 -225 -15 -263 26 -345 19 -40
37 -92 40 -122 16 -162 178 -273 333 -228 57 17 58 17 73 -5 42 -61 105 -120
146 -136 96 -37 239 4 305 87 23 29 37 37 71 41 51 6 205 70 265 110 23 16 55
44 69 64 44 57 110 97 147 90 31 -6 194 16 255 36 44 13 68 -8 88 -81 8 -31
27 -90 40 -132 l25 -77 -21 -78 c-11 -44 -23 -117 -26 -164 -4 -64 -13 -101
-35 -152 -36 -81 -62 -199 -54 -247 11 -68 -22 -460 -44 -533 -12 -36 -26
-111 -31 -167 -12 -127 -26 -213 -45 -275 -8 -27 -15 -69 -15 -94 0 -29 -12
-71 -35 -122 -57 -126 -64 -200 -28 -291 13 -34 12 -40 -23 -120 -19 -46 -46
-111 -58 -145 -12 -33 -44 -94 -71 -134 -26 -39 -61 -105 -76 -144 -29 -74
-64 -254 -75 -386 -7 -86 -26 -134 -79 -208 -50 -70 -116 -120 -168 -127 -23
-3 -190 -7 -372 -8 l-330 -2 -80 -29 c-152 -53 -295 -145 -424 -270 -66 -64
-91 -96 -118 -155 -34 -72 -35 -78 -31 -170 5 -119 23 -157 110 -235 99 -89
155 -123 268 -163 l105 -37 395 -2 c260 -1 433 -6 505 -15 61 -7 205 -13 320
-13 177 0 219 3 270 19 45 14 96 19 200 21 110 1 153 6 200 22 33 11 103 25
155 32 52 7 122 19 155 27 142 35 286 51 395 42 58 -4 121 -13 140 -18 19 -6
57 -11 84 -11 27 0 90 -7 141 -16 67 -11 131 -14 227 -11 73 3 183 7 243 9
132 4 189 26 277 106 31 29 75 59 97 67 50 17 115 62 156 105 17 18 54 50 82
71 117 87 137 233 46 338 -42 50 -123 91 -179 91 -25 0 -57 8 -76 20 -18 10
-60 25 -93 33 -33 8 -85 27 -115 43 -50 27 -63 29 -155 28 -64 0 -119 -6 -154
-17 -49 -15 -59 -15 -130 -1 -41 9 -123 19 -181 24 -130 10 -201 35 -258 92
-52 51 -53 70 -17 264 14 74 25 162 25 194 0 33 10 108 22 167 17 81 21 134
19 213 -5 153 -5 205 3 300 7 73 4 96 -16 165 -19 68 -22 89 -14 140 13 88 50
240 79 320 38 107 54 297 36 439 -20 162 -18 446 4 516 10 31 24 87 32 125 8
39 28 119 45 180 17 60 38 159 46 220 9 60 19 139 25 175 5 36 13 121 19 190
6 69 17 150 25 180 8 30 21 111 30 180 9 69 21 143 27 165 11 44 23 153 38
370 5 77 12 156 15 175 3 19 9 100 14 180 5 80 18 190 29 245 52 250 55 278
48 443 -12 261 -57 438 -151 594 -55 92 -111 143 -179 163 -51 16 -73 16 -216
6z"/>
<path d="M3445 12439 c-27 -4 -70 -16 -95 -25 -51 -19 -140 -72 -140 -84 0
-17 69 -35 130 -34 36 1 99 9 140 18 85 18 248 92 234 106 -26 24 -173 35
-269 19z"/>
<path d="M5260 12439 c-30 -5 -58 -13 -63 -18 -4 -4 31 -27 78 -51 97 -47 268
-85 341 -76 45 6 94 25 94 37 0 13 -99 68 -160 89 -71 24 -211 33 -290 19z"/>
<path d="M2626 12360 c-26 -17 -70 -51 -97 -77 -54 -50 -125 -141 -116 -149 4
-5 177 22 182 28 21 24 91 215 83 224 -3 2 -26 -10 -52 -26z"/>
<path d="M6240 12377 c0 -28 64 -189 84 -214 5 -6 169 -34 178 -31 15 5 -72
118 -131 169 -67 59 -131 96 -131 76z"/>
<path d="M3035 12099 c-781 -136 -1450 -253 -1488 -259 l-67 -12 3 -2136 3
-2137 22 -110 c110 -560 384 -1034 873 -1510 426 -415 998 -803 1693 -1147
l219 -108 167 0 167 0 199 98 c565 280 1063 596 1464 930 150 126 434 409 541
542 356 438 547 867 598 1342 8 65 11 784 11 2167 l0 2069 -67 12 c-293 50
-2882 501 -2898 504 -11 2 -659 -108 -1440 -245z m2810 -189 c759 -132 1386
-242 1393 -245 10 -4 12 -392 9 -2037 l-3 -2033 -22 -110 c-31 -161 -67 -285
-118 -415 -313 -789 -1146 -1526 -2436 -2155 -107 -52 -202 -95 -210 -95 -21
0 -460 219 -643 320 -1168 647 -1881 1393 -2080 2177 -63 250 -59 68 -62 2308
l-4 2041 1378 241 c758 132 1387 241 1398 242 11 0 641 -107 1400 -239z"/>
<path d="M3790 11885 c-605 -106 -750 -137 -750 -156 0 -5 12 -33 27 -63 24
-49 29 -54 52 -50 14 3 415 74 891 159 476 84 861 154 855 154 -5 1 -100 17
-210 36 -110 19 -204 34 -210 34 -5 -1 -300 -52 -655 -114z"/>
<path d="M4077 11730 c-522 -92 -951 -170 -953 -173 -3 -3 3 -34 14 -69 l20
-63 1171 -3 1171 -2 0 200 c0 110 -3 200 -7 200 -5 0 -109 18 -233 40 -124 22
-227 39 -230 39 -3 0 -432 -76 -953 -169z"/>
<path d="M5940 10595 l0 -1145 580 0 580 0 0 1044 0 1044 -27 6 c-34 7 -1123
196 -1129 196 -2 0 -4 -515 -4 -1145z"/>
<path d="M3175 11298 c4 -40 8 -74 10 -76 1 -2 511 -93 1131 -202 621 -109
1141 -201 1157 -204 l27 -5 0 279 0 280 -1166 0 -1166 0 7 -72z"/>
<path d="M3175 11103 c-4 -32 -9 -65 -11 -74 -3 -11 4 -20 23 -27 15 -5 501
-182 1078 -392 578 -210 1092 -397 1143 -416 l92 -34 0 298 0 297 -1152 203
c-634 111 -1156 202 -1160 202 -4 0 -10 -26 -13 -57z"/>
<path d="M3150 10949 c0 -2 -11 -34 -24 -72 -16 -47 -19 -70 -12 -76 6 -5 534
-311 1174 -680 686 -396 1173 -671 1187 -671 l25 0 -2 327 -3 327 -1150 418
c-1116 406 -1195 434 -1195 427z"/>
<path d="M3070 10742 c0 -5 -16 -35 -35 -67 -20 -32 -32 -62 -28 -66 4 -4 316
-267 693 -583 l685 -575 475 0 c469 -1 475 0 445 18 -85 54 -2218 1281 -2226
1281 -5 0 -9 -4 -9 -8z"/>
<path d="M2912 10509 c-48 -52 -52 -60 -40 -77 7 -10 195 -235 417 -500 l405
-482 298 0 c164 0 298 2 298 4 0 4 -1266 1069 -1310 1102 -12 9 -25 0 -68 -47z"/>
<path d="M2748 10362 l-66 -49 248 -429 248 -429 223 -3 223 -2 -21 22 c-11
13 -186 221 -388 463 -202 242 -375 448 -384 457 -16 17 -20 15 -83 -30z"/>
<path d="M2550 10250 c-36 -16 -64 -33 -63 -37 1 -5 63 -178 139 -386 l137
-377 173 0 c96 0 174 3 174 6 0 16 -474 824 -484 823 -6 0 -40 -13 -76 -29z"/>
<path d="M1831 10140 c-6 -41 -11 -193 -11 -379 l0 -311 90 0 90 0 -2 362 -3
363 -53 11 c-29 7 -63 15 -76 18 -22 5 -24 2 -35 -64z"/>
<path d="M2338 10186 c-31 -6 -59 -13 -62 -16 -3 -3 23 -165 57 -360 l62 -355
153 -3 154 -3 -8 23 c-4 13 -64 181 -134 373 -141 388 -123 361 -222 341z"/>
<path d="M2050 9810 l0 -360 145 0 146 0 -6 33 c-3 17 -32 178 -64 357 l-57
325 -82 3 -82 3 0 -361z"/>
<path d="M1820 8356 c0 -718 4 -784 59 -998 181 -698 779 -1357 1774 -1952
205 -122 441 -250 652 -353 l155 -74 182 90 c284 139 581 304 801 445 l57 37
0 1729 0 1730 -1840 0 -1840 0 0 -654z m2167 116 c190 -217 266 -384 243 -539
-10 -68 -27 -117 -80 -233 -46 -100 -84 -229 -107 -357 l-17 -93 -42 0 -42 0
-8 498 -9 497 -6 -315 c-4 -173 -7 -397 -8 -497 l-1 -183 -43 0 -42 0 -17 93
c-25 134 -63 259 -113 367 -59 130 -75 190 -75 280 0 118 45 229 148 365 66
86 145 174 157 175 6 0 34 -26 62 -58z m-541 -598 c97 -46 212 -224 283 -441
54 -162 58 -183 34 -183 -13 0 -23 12 -32 38 -35 98 -153 248 -240 304 -81 51
-182 32 -230 -42 -11 -17 -4 -13 21 12 44 43 92 56 147 39 92 -27 219 -170
274 -308 16 -42 16 -43 -3 -43 -11 0 -30 14 -42 31 -39 53 -96 79 -174 81
-106 2 -140 -15 -190 -94 -13 -21 -29 -38 -34 -38 -12 0 -57 77 -81 139 -44
117 -43 298 2 400 51 116 154 157 265 105z m1112 11 c75 -32 114 -90 138 -208
26 -124 0 -280 -66 -394 -17 -29 -34 -53 -39 -53 -5 0 -18 15 -29 33 -27 43
-71 83 -102 92 -43 14 -158 7 -193 -11 -17 -10 -48 -35 -68 -57 -21 -23 -43
-38 -53 -35 -15 3 -12 14 23 83 69 136 187 256 267 271 51 9 108 -11 139 -49
15 -17 22 -23 17 -12 -6 11 -22 31 -36 44 -35 33 -127 41 -176 16 -80 -41
-196 -178 -246 -289 -20 -46 -35 -66 -47 -66 -24 0 -19 22 34 183 95 289 234
461 377 466 12 1 39 -6 60 -14z m-360 -674 c8 -5 12 -17 10 -27 -3 -18 -18
-19 -276 -22 -237 -2 -273 0 -278 13 -4 8 -1 22 6 30 10 13 54 15 269 15 141
0 262 -4 269 -9z m50 -125 c2 -10 -2 -22 -10 -27 -7 -5 -146 -9 -309 -9 -311
0 -329 2 -313 44 6 15 37 16 317 14 296 -3 312 -4 315 -22z m-43 -106 l0 -25
-273 -3 c-237 -2 -273 0 -278 13 -4 8 -1 22 6 30 11 13 52 15 279 13 l266 -3
0 -25z m-481 -112 c-27 -90 -75 -153 -146 -189 -45 -23 -86 -24 -133 -5 -44
19 -46 12 -3 -10 103 -53 262 49 306 197 14 49 21 59 40 59 12 0 22 -2 22 -4
0 -2 -7 -39 -15 -81 -18 -94 -55 -164 -117 -220 -87 -78 -178 -103 -263 -71
-46 18 -109 79 -125 122 -15 37 -12 117 4 139 14 19 15 19 68 0 74 -27 179
-26 235 3 39 21 72 57 86 95 4 10 17 17 31 17 l25 0 -15 -52z m190 0 c3 -29 7
-141 8 -248 l2 -195 7 220 c3 121 7 232 8 248 1 23 5 27 30 27 l28 0 5 -79 c6
-104 58 -214 152 -323 80 -94 90 -116 75 -171 -28 -106 -105 -163 -250 -186
-122 -20 -278 35 -324 114 -59 100 -54 133 39 239 100 115 152 229 158 349 3
54 4 57 29 57 24 0 27 -4 33 -52z m189 -5 c42 -150 202 -252 307 -198 41 21
38 27 -5 9 -44 -18 -76 -18 -123 2 -71 29 -129 100 -156 192 l-15 52 27 0 c22
-1 31 -9 47 -43 41 -86 177 -119 303 -72 53 19 54 19 68 0 17 -22 18 -102 3
-142 -15 -40 -67 -92 -114 -114 -60 -28 -121 -24 -192 11 -99 50 -168 138
-191 245 -24 111 -24 115 2 115 19 0 25 -9 39 -57z"/>
<path d="M5940 7440 c0 -863 2 -1570 5 -1570 3 0 60 46 127 103 157 130 379
352 491 489 255 312 433 661 496 976 37 181 41 278 41 932 l0 640 -580 0 -580
0 0 -1570z"/>
<path d="M3035 12261 c-10 -16 14 -23 58 -16 72 12 77 24 10 25 -34 0 -64 -4
-68 -9z"/>
<path d="M5770 12261 c23 -13 98 -24 111 -16 20 13 -13 25 -71 25 -36 -1 -50
-4 -40 -9z"/>
<path d="M2275 12146 l-50 -47 45 6 c56 7 62 14 58 55 l-3 33 -50 -47z"/>
<path d="M6588 12151 c4 -37 5 -38 58 -48 l55 -10 -30 31 c-17 17 -43 39 -58
48 l-28 16 3 -37z"/>
<path d="M1302 11225 c-77 -119 -129 -325 -118 -465 5 -70 37 -205 52 -219 11
-11 74 72 94 126 18 49 20 76 19 306 -1 139 -4 263 -8 277 -7 24 -9 23 -39
-25z"/>
<path d="M7577 11249 c-4 -13 -7 -141 -7 -284 0 -258 0 -260 26 -315 24 -51
69 -110 85 -110 4 0 17 37 29 83 30 109 30 258 1 372 -20 76 -82 218 -113 259
-14 18 -15 18 -21 -5z"/>
<path d="M986 10778 c-81 -225 -76 -462 16 -660 17 -38 36 -67 42 -65 6 1 27
34 46 72 l35 70 0 165 c-1 136 -5 179 -22 246 -20 76 -81 244 -88 244 -2 0
-15 -33 -29 -72z"/>
<path d="M7876 10790 c-57 -125 -105 -382 -91 -494 14 -118 44 -206 79 -235
14 -12 21 -3 55 70 56 117 75 223 68 369 -5 113 -37 253 -72 319 l-14 26 -25
-55z"/>
<path d="M1292 10490 c-142 -333 -231 -697 -263 -1075 -14 -171 -6 -532 16
-695 45 -334 140 -678 264 -955 l41 -90 0 226 c0 212 -1 230 -24 296 -65 191
-127 482 -151 707 -17 168 -20 524 -5 677 25 246 75 492 145 707 33 103 35
118 33 219 l-3 108 -53 -125z"/>
<path d="M7570 10503 c0 -75 5 -125 16 -154 54 -152 114 -409 145 -619 26
-174 36 -561 20 -750 -21 -250 -74 -515 -145 -737 l-36 -111 2 -224 3 -223 53
125 c129 302 211 619 254 975 17 142 17 587 0 725 -33 275 -87 517 -167 750
-42 120 -129 337 -141 349 -2 2 -4 -45 -4 -106z"/>
<path d="M729 10269 c-9 -36 -14 -109 -13 -224 0 -155 3 -178 27 -258 15 -48
41 -115 58 -148 31 -62 109 -178 120 -179 4 0 16 23 28 51 46 106 37 271 -25
457 -35 108 -117 276 -157 326 l-24 30 -14 -55z"/>
<path d="M8117 10243 c-120 -201 -185 -424 -175 -603 5 -89 38 -188 58 -175
21 13 102 136 130 198 73 161 98 379 65 561 -9 53 -20 96 -24 96 -4 0 -28 -35
-54 -77z"/>
<path d="M1326 10040 c-21 -52 -20 -60 4 -60 17 0 20 7 20 50 0 28 -2 50 -4
50 -2 0 -11 -18 -20 -40z"/>
<path d="M7570 10028 c0 -42 3 -48 21 -48 22 0 20 19 -7 70 -13 24 -13 23 -14
-22z"/>
<path d="M550 9596 c0 -281 110 -544 297 -710 l43 -38 11 28 c55 145 -33 434
-204 664 -53 72 -130 160 -139 160 -5 0 -8 -47 -8 -104z"/>
<path d="M8296 9635 c-174 -205 -296 -470 -296 -643 0 -55 18 -142 29 -142 13
0 149 145 181 193 90 135 148 322 157 508 8 161 1 169 -71 84z"/>
<path d="M1306 9638 c-37 -55 -58 -106 -70 -172 -7 -35 -6 -38 11 -31 10 4 37
14 61 22 l42 15 0 109 c0 60 -2 109 -4 109 -2 0 -20 -24 -40 -52z"/>
<path d="M7570 9584 l0 -111 53 -20 52 -20 3 33 c4 39 -28 116 -74 181 l-34
48 0 -111z"/>
<path d="M1323 9075 c-30 -71 -43 -123 -43 -177 0 -53 12 -61 49 -30 20 16 22
24 19 137 l-3 120 -22 -50z"/>
<path d="M7571 9003 l-1 -122 30 -21 29 -21 7 28 c10 39 -9 138 -39 203 l-25
55 -1 -122z"/>
<path d="M490 9021 c0 -41 33 -187 57 -254 60 -169 172 -342 276 -430 70 -59
173 -128 181 -120 3 4 6 37 6 75 0 201 -178 482 -437 691 -38 31 -73 57 -77
57 -3 0 -6 -9 -6 -19z"/>
<path d="M8319 8962 c-186 -155 -343 -371 -393 -541 -18 -61 -22 -201 -6 -201
6 0 41 20 78 45 187 123 342 353 400 595 26 108 36 180 24 180 -5 0 -51 -35
-103 -78z"/>
<path d="M560 8305 c0 -2 13 -41 30 -86 102 -279 309 -507 560 -614 46 -20 87
-32 92 -27 13 13 -12 122 -44 188 -86 177 -317 388 -555 508 -73 36 -83 40
-83 31z"/>
<path d="M8254 8261 c-319 -169 -552 -426 -580 -640 -7 -53 -7 -53 17 -46 57
17 196 88 252 129 147 105 302 302 368 467 29 75 48 139 41 139 -4 0 -48 -22
-98 -49z"/>
<path d="M730 7604 c0 -13 61 -117 103 -174 58 -80 222 -238 302 -291 39 -26
102 -62 140 -82 75 -37 212 -83 222 -74 3 3 -4 31 -16 61 -11 31 -32 97 -47
148 -14 51 -33 101 -41 110 -28 31 -202 139 -296 183 -132 63 -367 139 -367
119z"/>
<path d="M8084 7585 c-183 -54 -364 -140 -499 -237 -68 -49 -75 -57 -86 -103
-6 -27 -27 -97 -45 -154 -19 -57 -32 -106 -30 -109 9 -8 141 37 221 76 199 98
391 278 505 471 22 38 40 72 40 75 0 10 -21 6 -106 -19z"/>
<path d="M1040 6911 c20 -38 170 -178 257 -240 108 -77 256 -153 375 -192 49
-16 94 -29 99 -29 5 0 -14 37 -43 83 -28 45 -79 136 -113 202 l-62 120 -89 22
c-120 30 -276 53 -363 53 -68 0 -71 -1 -61 -19z"/>
<path d="M7634 6914 c-50 -8 -131 -24 -179 -37 l-87 -22 -62 -120 c-35 -66
-86 -157 -115 -203 -51 -82 -51 -82 -24 -76 123 28 289 103 421 191 83 55 244
200 283 255 l20 28 -83 -1 c-46 -1 -124 -7 -174 -15z"/>
<path d="M1621 6328 c-111 -14 -114 -18 -45 -72 134 -105 289 -181 487 -236
81 -23 83 -29 -27 96 -38 44 -93 112 -123 152 l-55 72 -82 -1 c-44 -1 -115 -6
-155 -11z"/>
<path d="M7007 6268 c-30 -40 -85 -108 -123 -152 -110 -125 -108 -119 -25 -96
98 28 188 62 284 111 85 43 213 126 242 159 15 17 15 19 -2 24 -34 10 -188 26
-254 26 l-67 0 -55 -72z"/>
<path d="M2224 5800 c-145 -51 -140 -42 -44 -88 47 -22 114 -50 150 -62 61
-21 232 -61 237 -57 1 1 -22 22 -52 47 -29 25 -88 77 -132 117 l-79 72 -80
-29z"/>
<path d="M6515 5738 c-55 -50 -115 -101 -133 -115 -18 -14 -31 -27 -30 -29 6
-6 146 27 223 53 94 31 220 86 229 101 7 11 2 14 -109 52 l-81 27 -99 -89z"/>
<path d="M2790 5266 c-52 -40 -103 -82 -113 -94 -19 -20 -18 -21 30 -29 60
-10 398 -10 437 0 27 8 24 11 -90 89 -66 44 -126 86 -135 94 -8 8 -20 14 -25
14 -5 0 -52 -33 -104 -74z"/>
<path d="M5882 5247 c-112 -77 -129 -93 -115 -101 22 -13 378 -14 448 -2 l50
8 -44 40 c-61 54 -188 148 -198 147 -4 0 -68 -42 -141 -92z"/>
</g>
</svg>
